<svg id="visual" viewBox="0 0 960 540" width="960" height="540" xmlns="http://www.w3.org/2000/svg" xmlns:xlink="http://www.w3.org/1999/xlink" version="1.1"><g transform="translate(1038.9199379826123 -30.05695689453961)"><path d="M188.3 -313.3C264.1 -282.4 359.4 -272.4 403.9 -223.7C448.4 -175 442.2 -87.5 439.8 -1.4C437.3 84.7 438.6 169.3 406.7 239.9C374.8 310.5 309.6 367 236.3 415.5C163 464 81.5 504.5 7.5 491.5C-66.5 478.5 -133 412 -214.1 368C-295.2 324 -391 302.5 -470.2 244.9C-549.5 187.3 -612.2 93.7 -597.1 8.8C-581.9 -76.2 -488.8 -152.3 -418 -224.5C-347.2 -296.7 -298.6 -364.8 -232.6 -401.4C-166.7 -438 -83.3 -443 -13.5 -419.6C56.3 -396.1 112.5 -344.2 188.3 -313.3" fill="#89dc86"></path></g></svg>