<svg id="visual" viewBox="0 0 900 600" width="900" height="600" xmlns="http://www.w3.org/2000/svg" xmlns:xlink="http://www.w3.org/1999/xlink" version="1.1"><rect x="0" y="0" width="900" height="600" fill="#FFFFFF"></rect><path d="M0 557L15 555.2C30 553.3 60 549.7 90 548.8C120 548 150 550 180 551.2C210 552.3 240 552.7 270 557C300 561.3 330 569.7 360 571.7C390 573.7 420 569.3 450 569C480 568.7 510 572.3 540 574.3C570 576.3 600 576.7 630 574.8C660 573 690 569 720 567C750 565 780 565 810 562.7C840 560.3 870 555.7 885 553.3L900 551L900 601L885 601C870 601 840 601 810 601C780 601 750 601 720 601C690 601 660 601 630 601C600 601 570 601 540 601C510 601 480 601 450 601C420 601 390 601 360 601C330 601 300 601 270 601C240 601 210 601 180 601C150 601 120 601 90 601C60 601 30 601 15 601L0 601Z" fill="#0066ff"></path><path d="M0 580L15 576C30 572 60 564 90 560.3C120 556.7 150 557.3 180 560.3C210 563.3 240 568.7 270 568.7C300 568.7 330 563.3 360 563.3C390 563.3 420 568.7 450 569.5C480 570.3 510 566.7 540 567.8C570 569 600 575 630 577.8C660 580.7 690 580.3 720 576.5C750 572.7 780 565.3 810 564C840 562.7 870 567.3 885 569.7L900 572L900 601L885 601C870 601 840 601 810 601C780 601 750 601 720 601C690 601 660 601 630 601C600 601 570 601 540 601C510 601 480 601 450 601C420 601 390 601 360 601C330 601 300 601 270 601C240 601 210 601 180 601C150 601 120 601 90 601C60 601 30 601 15 601L0 601Z" fill="#0080ff"></path><path d="M0 587L15 587C30 587 60 587 90 586.7C120 586.3 150 585.7 180 585.8C210 586 240 587 270 585.5C300 584 330 580 360 580.2C390 580.3 420 584.7 450 585C480 585.3 510 581.7 540 580.3C570 579 600 580 630 579.3C660 578.7 690 576.3 720 576.2C750 576 780 578 810 578.7C840 579.3 870 578.7 885 578.3L900 578L900 601L885 601C870 601 840 601 810 601C780 601 750 601 720 601C690 601 660 601 630 601C600 601 570 601 540 601C510 601 480 601 450 601C420 601 390 601 360 601C330 601 300 601 270 601C240 601 210 601 180 601C150 601 120 601 90 601C60 601 30 601 15 601L0 601Z" fill="#1e97fd"></path><path d="M0 584L15 585.2C30 586.3 60 588.7 90 588.2C120 587.7 150 584.3 180 582.2C210 580 240 579 270 578.5C300 578 330 578 360 578.7C390 579.3 420 580.7 450 582.3C480 584 510 586 540 587C570 588 600 588 630 586.7C660 585.3 690 582.7 720 582.5C750 582.3 780 584.7 810 584.5C840 584.3 870 581.7 885 580.3L900 579L900 601L885 601C870 601 840 601 810 601C780 601 750 601 720 601C690 601 660 601 630 601C600 601 570 601 540 601C510 601 480 601 450 601C420 601 390 601 360 601C330 601 300 601 270 601C240 601 210 601 180 601C150 601 120 601 90 601C60 601 30 601 15 601L0 601Z" fill="#4facf7"></path></svg>